<?xml version="1.0" encoding="UTF-8"?>
<svg id="Layer_2" data-name="Layer 2" xmlns="http://www.w3.org/2000/svg" viewBox="0 0 664.43 664.43">
  <defs>
    <style>
      .cls-1, .cls-2 {
        fill: #fff;
      }

      .cls-2 {
        opacity: .92;
      }

      .cls-3 {
        fill: #60ad3d;
      }
    </style>
  </defs>
  <g id="Layer_1-2" data-name="Layer 1">
    <circle class="cls-3" cx="332.22" cy="332.22" r="332.22"/>
    <g>
      <polygon class="cls-2" points="332.22 296.47 338.31 302.3 417.51 375.66 417.51 331.79 356.14 273.55 374.19 256.25 417.51 256.25 417.51 217.01 246.92 217.01 246.92 256.25 290.24 256.25 308.3 273.55 246.92 331.79 246.92 375.66 326.12 302.3 332.22 296.47"/>
      <path class="cls-1" d="M244,460.62c0-13.49,2.19-25.92,6.58-37.28,4.39-11.37,10.56-21.29,18.52-29.73,7.96-8.45,17.3-14.99,28.03-19.62,10.72-4.63,22.42-6.95,35.09-6.95s24.57,2.32,35.21,6.95c10.64,4.63,19.94,11.17,27.9,19.62,7.96,8.45,14.13,18.32,18.52,29.61,4.39,11.29,6.58,23.68,6.58,37.16s-2.16,25.87-6.46,37.17c-4.31,11.29-10.44,21.16-18.4,29.61-7.96,8.45-17.3,14.99-28.02,19.62-10.72,4.63-22.5,6.94-35.34,6.94s-24.41-2.31-35.22-6.94c-10.81-4.63-20.19-11.17-28.15-19.62-7.96-8.45-14.1-18.32-18.4-29.61-4.3-11.29-6.46-23.6-6.46-36.92ZM277.38,460.37c0,7.64,1.34,14.66,4.02,21.08,2.68,6.42,6.5,12.06,11.45,16.94,4.95,4.87,10.72,8.65,17.3,11.33,6.58,2.68,13.93,4.02,22.06,4.02s15.47-1.34,22.05-4.02c6.58-2.68,12.35-6.46,17.3-11.33,4.95-4.88,8.77-10.52,11.45-16.94,2.68-6.42,4.02-13.45,4.02-21.08s-1.34-14.71-4.02-21.2c-2.68-6.5-6.5-12.15-11.45-16.94-4.96-4.8-10.72-8.53-17.3-11.21-6.58-2.68-13.93-4.02-22.05-4.02s-15.48,1.34-22.06,4.02c-6.58,2.68-12.35,6.42-17.3,11.21-4.96,4.79-8.77,10.44-11.45,16.94-2.68,6.5-4.02,13.56-4.02,21.2Z"/>
      <path class="cls-1" d="M342.7,164.7c4.06,1.86,9.66,2.8,16.81,2.8h39.23c5.69,0,10.07,1.5,13.16,4.51,3.08,3,4.63,7.43,4.63,13.28v4.39h29.73v-14.13c0-15.11-3.74-26.57-11.21-34.36-7.47-7.8-18.28-11.7-32.41-11.7h-43.87c-3.9,0-6.79-.98-8.65-2.93-1.87-1.95-2.8-4.55-2.8-7.8v-8.04h-29.97v8.04c0,3.25-.94,5.85-2.8,7.8-1.87,1.95-4.84,2.93-8.89,2.93h-43.87c-13.97,0-24.73,3.9-32.29,11.7-7.56,7.8-11.33,19.25-11.33,34.36v14.13h29.73v-4.39c0-5.85,1.55-10.28,4.63-13.28,3.09-3.01,7.47-4.51,13.16-4.51h39.24c7.15,0,12.75-.94,16.81-2.8,4.06-1.87,7.03-4.88,8.89-9.02.62-1.39,1.17-2.93,1.66-4.6.49,1.67,1.03,3.21,1.63,4.6,1.79,4.14,4.71,7.15,8.77,9.02Z"/>
    </g>
  </g>
</svg>