<?xml version="1.0" encoding="UTF-8"?>
<svg id="Layer_2" data-name="Layer 2" xmlns="http://www.w3.org/2000/svg" viewBox="0 0 442.99 228.1">
  <defs>
    <style>
      .cls-1 {
        opacity: .92;
      }

      .cls-1, .cls-2 {
        fill: #60ad3d;
      }
    </style>
  </defs>
  <g id="Layer_1-2" data-name="Layer 1">
    <polygon class="cls-1" points="185.74 114.05 191.58 107.96 264.93 28.76 221.07 28.76 162.82 90.13 145.52 72.07 145.52 28.76 106.29 28.76 106.29 199.35 145.52 199.35 145.52 156.03 162.82 137.97 221.07 199.35 264.93 199.35 191.58 120.14 185.74 114.05"/>
    <path class="cls-2" d="M349.89,202.27c-13.49,0-25.92-2.19-37.28-6.58-11.37-4.39-21.29-10.56-29.73-18.52-8.45-7.96-14.99-17.3-19.62-28.03-4.63-10.72-6.95-22.42-6.95-35.09s2.32-24.57,6.95-35.21c4.63-10.64,11.17-19.94,19.62-27.9,8.45-7.96,18.32-14.13,29.61-18.52,11.29-4.39,23.68-6.58,37.16-6.58s25.87,2.16,37.17,6.46c11.29,4.31,21.16,10.44,29.61,18.4,8.45,7.96,14.99,17.3,19.62,28.02,4.63,10.72,6.94,22.5,6.94,35.34s-2.31,24.41-6.94,35.22c-4.63,10.81-11.17,20.19-19.62,28.15-8.45,7.96-18.32,14.1-29.61,18.4-11.29,4.3-23.6,6.46-36.92,6.46ZM349.65,168.88c7.64,0,14.66-1.34,21.08-4.02,6.42-2.68,12.06-6.5,16.94-11.45,4.87-4.95,8.65-10.72,11.33-17.3,2.68-6.58,4.02-13.93,4.02-22.06s-1.34-15.47-4.02-22.05c-2.68-6.58-6.46-12.35-11.33-17.3-4.88-4.95-10.52-8.77-16.94-11.45-6.42-2.68-13.45-4.02-21.08-4.02s-14.71,1.34-21.2,4.02c-6.5,2.68-12.15,6.5-16.94,11.45-4.8,4.96-8.53,10.72-11.21,17.3-2.68,6.58-4.02,13.93-4.02,22.05s1.34,15.48,4.02,22.06c2.68,6.58,6.42,12.35,11.21,17.3,4.79,4.96,10.44,8.77,16.94,11.45,6.5,2.68,13.56,4.02,21.2,4.02Z"/>
    <path class="cls-2" d="M53.98,103.57c1.86-4.06,2.8-9.66,2.8-16.81v-39.23c0-5.69,1.5-10.07,4.51-13.16,3-3.08,7.43-4.63,13.28-4.63h4.39V0h-14.13c-15.11,0-26.57,3.74-34.36,11.21-7.8,7.47-11.7,18.28-11.7,32.41v43.87c0,3.9-.98,6.79-2.93,8.65-1.95,1.87-4.55,2.8-7.8,2.8H0v29.97h8.04c3.25,0,5.85.94,7.8,2.8,1.95,1.87,2.93,4.84,2.93,8.89v43.87c0,13.97,3.9,24.73,11.7,32.29,7.8,7.56,19.25,11.33,34.36,11.33h14.13v-29.73h-4.39c-5.85,0-10.28-1.55-13.28-4.63-3.01-3.09-4.51-7.47-4.51-13.16v-39.24c0-7.15-.94-12.75-2.8-16.81-1.87-4.06-4.88-7.03-9.02-8.89-1.39-.62-2.93-1.17-4.6-1.66,1.67-.49,3.21-1.03,4.6-1.63,4.14-1.79,7.15-4.71,9.02-8.77Z"/>
  </g>
</svg>