<?xml version="1.0" encoding="UTF-8"?>
<svg id="Layer_1" data-name="Layer 1" xmlns="http://www.w3.org/2000/svg" viewBox="0 0 1366 768">
  <defs>
    <style>
      .cls-1 {
        opacity: .92;
      }

      .cls-1, .cls-2 {
        fill: #60ad3d;
      }
    </style>
  </defs>
  <polygon class="cls-1" points="272.87 384.21 278.71 378.12 352.06 298.92 308.19 298.92 249.95 360.29 232.65 342.24 232.65 298.92 193.41 298.92 193.41 469.51 232.65 469.51 232.65 426.19 249.95 408.13 308.19 469.51 352.06 469.51 278.71 390.31 272.87 384.21"/>
  <path class="cls-2" d="M437.02,472.43c-13.49,0-25.92-2.19-37.28-6.58-11.37-4.39-21.29-10.56-29.73-18.52-8.45-7.96-14.99-17.3-19.62-28.03-4.63-10.72-6.95-22.42-6.95-35.09s2.32-24.57,6.95-35.21c4.63-10.64,11.17-19.94,19.62-27.9,8.45-7.96,18.32-14.13,29.61-18.52,11.29-4.39,23.68-6.58,37.16-6.58s25.87,2.16,37.17,6.46c11.29,4.31,21.16,10.44,29.61,18.4,8.45,7.96,14.99,17.3,19.62,28.02,4.63,10.72,6.94,22.5,6.94,35.34s-2.31,24.41-6.94,35.22c-4.63,10.81-11.17,20.19-19.62,28.15-8.45,7.96-18.32,14.1-29.61,18.4-11.29,4.3-23.6,6.46-36.92,6.46ZM436.77,439.04c7.64,0,14.66-1.34,21.08-4.02,6.42-2.68,12.06-6.5,16.94-11.45,4.87-4.95,8.65-10.72,11.33-17.3,2.68-6.58,4.02-13.93,4.02-22.06s-1.34-15.47-4.02-22.05c-2.68-6.58-6.46-12.35-11.33-17.3-4.88-4.95-10.52-8.77-16.94-11.45-6.42-2.68-13.45-4.02-21.08-4.02s-14.71,1.34-21.2,4.02c-6.5,2.68-12.15,6.5-16.94,11.45-4.8,4.96-8.53,10.72-11.21,17.3-2.68,6.58-4.02,13.93-4.02,22.05s1.34,15.48,4.02,22.06c2.68,6.58,6.42,12.35,11.21,17.3,4.79,4.96,10.44,8.77,16.94,11.45,6.5,2.68,13.56,4.02,21.2,4.02Z"/>
  <path d="M784.65,472.43c-13.65,0-26.77-1.83-39.36-5.48-12.59-3.66-22.71-8.41-30.34-14.26l13.4-29.73c7.15,5.2,15.76,9.47,25.83,12.8,10.07,3.33,20.23,4.99,30.46,4.99,7.8,0,14.09-.81,18.89-2.44,4.79-1.62,8.32-3.78,10.6-6.46,2.27-2.68,3.41-5.81,3.41-9.38,0-4.54-1.79-8.16-5.36-10.84-3.58-2.68-8.33-4.88-14.26-6.58-5.93-1.71-12.39-3.33-19.38-4.88-6.99-1.54-14.01-3.41-21.08-5.6-7.07-2.19-13.57-5.12-19.5-8.77-5.93-3.66-10.64-8.45-14.14-14.38-3.49-5.93-5.24-13.36-5.24-22.3,0-9.75,2.6-18.64,7.8-26.69,5.2-8.04,13.12-14.46,23.76-19.25,10.64-4.79,24-7.19,40.09-7.19,10.72,0,21.33,1.3,31.8,3.9,10.48,2.6,19.62,6.33,27.41,11.21l-12.43,29.73c-7.64-4.39-15.52-7.68-23.64-9.87-8.12-2.19-15.92-3.29-23.39-3.29s-14.05.85-18.76,2.56c-4.72,1.71-8.16,4.02-10.36,6.94-2.19,2.93-3.29,6.18-3.29,9.75,0,4.55,1.78,8.21,5.36,10.97,3.57,2.76,8.29,4.92,14.13,6.46,5.85,1.55,12.35,3.09,19.5,4.63,7.15,1.55,14.22,3.45,21.2,5.73,6.98,2.28,13.4,5.16,19.25,8.65,5.85,3.5,10.6,8.21,14.26,14.13,3.66,5.93,5.48,13.28,5.48,22.06,0,9.59-2.64,18.36-7.92,26.32-5.28,7.96-13.28,14.38-24,19.25-10.72,4.87-24.13,7.31-40.21,7.31Z"/>
  <path d="M1042.95,472.64c-13.65,0-26.77-1.83-39.36-5.48-12.59-3.66-22.71-8.41-30.34-14.26l13.4-29.73c7.15,5.2,15.76,9.47,25.83,12.8,10.07,3.33,20.23,4.99,30.46,4.99,7.8,0,14.09-.81,18.89-2.44,4.79-1.62,8.32-3.78,10.6-6.46,2.27-2.68,3.41-5.81,3.41-9.38,0-4.54-1.79-8.16-5.36-10.84-3.58-2.68-8.33-4.88-14.26-6.58-5.93-1.71-12.39-3.33-19.38-4.88-6.99-1.54-14.01-3.41-21.08-5.6-7.07-2.19-13.57-5.12-19.5-8.77-5.93-3.66-10.64-8.45-14.14-14.38-3.49-5.93-5.24-13.36-5.24-22.3,0-9.75,2.6-18.64,7.8-26.69,5.2-8.04,13.12-14.46,23.76-19.25,10.64-4.79,24-7.19,40.09-7.19,10.72,0,21.33,1.3,31.8,3.9,10.48,2.6,19.62,6.33,27.41,11.21l-12.43,29.73c-7.64-4.39-15.52-7.68-23.64-9.87-8.12-2.19-15.92-3.29-23.39-3.29s-14.05.85-18.76,2.56c-4.72,1.71-8.16,4.02-10.36,6.94-2.19,2.93-3.29,6.18-3.29,9.75,0,4.55,1.78,8.21,5.36,10.97,3.57,2.76,8.29,4.92,14.13,6.46,5.85,1.55,12.35,3.09,19.5,4.63,7.15,1.55,14.22,3.45,21.2,5.73,6.98,2.28,13.4,5.16,19.25,8.65,5.85,3.5,10.6,8.21,14.26,14.13,3.66,5.93,5.48,13.28,5.48,22.06,0,9.59-2.64,18.36-7.92,26.32-5.28,7.96-13.28,14.38-24,19.25-10.72,4.87-24.13,7.31-40.21,7.31Z"/>
  <path class="cls-2" d="M141.1,373.73c1.86-4.06,2.8-9.66,2.8-16.81v-39.23c0-5.69,1.5-10.07,4.51-13.16,3-3.08,7.43-4.63,13.28-4.63h4.39v-29.73h-14.13c-15.11,0-26.57,3.74-34.36,11.21-7.8,7.47-11.7,18.28-11.7,32.41v43.87c0,3.9-.98,6.79-2.93,8.65-1.95,1.87-4.55,2.8-7.8,2.8h-8.04v29.97h8.04c3.25,0,5.85.94,7.8,2.8,1.95,1.87,2.93,4.84,2.93,8.89v43.87c0,13.97,3.9,24.73,11.7,32.29,7.8,7.56,19.25,11.33,34.36,11.33h14.13v-29.73h-4.39c-5.85,0-10.28-1.55-13.28-4.63-3.01-3.09-4.51-7.47-4.51-13.16v-39.24c0-7.15-.94-12.75-2.8-16.81-1.87-4.06-4.88-7.03-9.02-8.89-1.39-.62-2.93-1.17-4.6-1.66,1.67-.49,3.21-1.03,4.6-1.63,4.14-1.79,7.15-4.71,9.02-8.77Z"/>
  <path d="M856.79,470.93l73.69-174.94h44.66l-73.69,174.94h-44.66Z"/>
  <path d="M703.57,466.82h-44.14l-56.34-154.32h25.12l-56.34,154.32h-44.14l64.6-170.83h46.65l64.6,170.83Z"/>
  <path d="M1121.8,490.12v-32.42h157.95v32.42h-157.95Z"/>
</svg>