<?xml version="1.0" encoding="UTF-8"?>
<svg id="Layer_1" xmlns="http://www.w3.org/2000/svg" version="1.1" viewBox="0 0 1207 242">
  <!-- Generator: Adobe Illustrator 30.0.0, SVG Export Plug-In . SVG Version: 2.1.1 Build 123)  -->
  <defs>
    <style>
      .st0, .st1 {
        fill: #60ad3d;
      }

      .st1 {
        isolation: isolate;
        opacity: .9;
      }
    </style>
  </defs>
  <polygon class="st1" points="192.9 121 198.8 114.9 272.1 35.7 228.3 35.7 170 97.1 152.7 79 152.7 35.7 113.5 35.7 113.5 206.3 152.7 206.3 152.7 163 170 144.9 228.3 206.3 272.1 206.3 198.8 127.1 192.9 121"/>
  <path class="st0" d="M357.1,209.2c-13.5,0-25.9-2.2-37.3-6.6-11.4-4.4-21.3-10.6-29.7-18.5-8.5-8-15-17.3-19.6-28-4.6-10.7-7-22.4-7-35.1s2.3-24.6,7-35.2c4.6-10.6,11.2-19.9,19.6-27.9,8.5-8,18.3-14.1,29.6-18.5,11.3-4.4,23.7-6.6,37.2-6.6s25.9,2.2,37.2,6.5c11.3,4.3,21.2,10.4,29.6,18.4,8.5,8,15,17.3,19.6,28s6.9,22.5,6.9,35.3-2.3,24.4-6.9,35.2-11.2,20.2-19.6,28.1-18.3,14.1-29.6,18.4c-11.3,4.3-23.6,6.5-36.9,6.5h0ZM356.8,175.8c7.6,0,14.7-1.3,21.1-4,6.4-2.7,12.1-6.5,16.9-11.5,4.9-5,8.6-10.7,11.3-17.3s4-13.9,4-22.1-1.3-15.5-4-22-6.5-12.4-11.3-17.3c-4.9-5-10.5-8.8-16.9-11.5-6.4-2.7-13.5-4-21.1-4s-14.7,1.3-21.2,4c-6.5,2.7-12.1,6.5-16.9,11.5-4.8,5-8.5,10.7-11.2,17.3s-4,13.9-4,22,1.3,15.5,4,22.1,6.4,12.4,11.2,17.3c4.8,5,10.4,8.8,16.9,11.5,6.5,2.7,13.6,4,21.2,4Z"/>
  <path d="M704.7,209.2c-13.7,0-26.8-1.8-39.4-5.5-12.6-3.7-22.7-8.4-30.3-14.3l13.4-29.7c7.2,5.2,15.8,9.5,25.8,12.8s20.2,5,30.5,5,14.1-.8,18.9-2.4c4.8-1.6,8.3-3.8,10.6-6.5,2.3-2.7,3.4-5.8,3.4-9.4s-1.8-8.2-5.4-10.8c-3.6-2.7-8.3-4.9-14.3-6.6-5.9-1.7-12.4-3.3-19.4-4.9-7-1.5-14-3.4-21.1-5.6s-13.6-5.1-19.5-8.8c-5.9-3.7-10.6-8.5-14.1-14.4-3.5-5.9-5.2-13.4-5.2-22.3s2.6-18.6,7.8-26.7c5.2-8,13.1-14.5,23.8-19.2s24-7.2,40.1-7.2,21.3,1.3,31.8,3.9c10.5,2.6,19.6,6.3,27.4,11.2l-12.4,29.7c-7.6-4.4-15.5-7.7-23.6-9.9s-15.9-3.3-23.4-3.3-14,.9-18.8,2.6c-4.7,1.7-8.2,4-10.4,6.9-2.2,2.9-3.3,6.2-3.3,9.8s1.8,8.2,5.4,11c3.6,2.8,8.3,4.9,14.1,6.5,5.8,1.5,12.3,3.1,19.5,4.6,7.2,1.5,14.2,3.5,21.2,5.7,7,2.3,13.4,5.2,19.2,8.6,5.8,3.5,10.6,8.2,14.3,14.1,3.7,5.9,5.5,13.3,5.5,22.1s-2.6,18.4-7.9,26.3c-5.3,8-13.3,14.4-24,19.2s-24.1,7.3-40.2,7.3h0Z"/>
  <path d="M963,209.4c-13.7,0-26.8-1.8-39.4-5.5-12.6-3.7-22.7-8.4-30.3-14.3l13.4-29.7c7.2,5.2,15.8,9.5,25.8,12.8s20.2,5,30.5,5,14.1-.8,18.9-2.4c4.8-1.6,8.3-3.8,10.6-6.5,2.3-2.7,3.4-5.8,3.4-9.4s-1.8-8.2-5.4-10.8c-3.6-2.7-8.3-4.9-14.3-6.6-5.9-1.7-12.4-3.3-19.4-4.9-7-1.5-14-3.4-21.1-5.6s-13.6-5.1-19.5-8.8c-5.9-3.7-10.6-8.5-14.1-14.4-3.5-5.9-5.2-13.4-5.2-22.3s2.6-18.6,7.8-26.7c5.2-8,13.1-14.5,23.8-19.2s24-7.2,40.1-7.2,21.3,1.3,31.8,3.9c10.5,2.6,19.6,6.3,27.4,11.2l-12.4,29.7c-7.6-4.4-15.5-7.7-23.6-9.9s-15.9-3.3-23.4-3.3-14.1.9-18.8,2.6c-4.7,1.7-8.2,4-10.4,6.9-2.2,2.9-3.3,6.2-3.3,9.8s1.8,8.2,5.4,11c3.6,2.8,8.3,4.9,14.1,6.5,5.8,1.5,12.3,3.1,19.5,4.6,7.2,1.5,14.2,3.5,21.2,5.7s13.4,5.2,19.2,8.6c5.8,3.5,10.6,8.2,14.3,14.1,3.7,5.9,5.5,13.3,5.5,22.1s-2.6,18.4-7.9,26.3-13.3,14.4-24,19.2-24.1,7.3-40.2,7.3h0Z"/>
  <path class="st0" d="M61.2,110.5c1.9-4.1,2.8-9.7,2.8-16.8v-39.2c0-5.7,1.5-10.1,4.5-13.2,3-3.1,7.4-4.6,13.3-4.6h4.4V7h-14.1c-15.1,0-26.6,3.7-34.4,11.2-7.8,7.5-11.7,18.3-11.7,32.4v43.9c0,3.9-1,6.8-2.9,8.6-1.9,1.9-4.6,2.8-7.8,2.8H7.2v30h8c3.2,0,5.8.9,7.8,2.8,1.9,1.9,2.9,4.8,2.9,8.9v43.9c0,14,3.9,24.7,11.7,32.3,7.8,7.6,19.2,11.3,34.4,11.3h14.1v-29.7h-4.4c-5.9,0-10.3-1.5-13.3-4.6-3-3.1-4.5-7.5-4.5-13.2v-39.2c0-7.1-.9-12.8-2.8-16.8-1.9-4.1-4.9-7-9-8.9-1.4-.6-2.9-1.2-4.6-1.7,1.7-.5,3.2-1,4.6-1.6,4.1-1.8,7.1-4.7,9-8.8h0Z"/>
  <path d="M776.9,207.7l73.7-174.9h44.7l-73.7,174.9h-44.7Z"/>
  <path d="M623.6,203.6h-44.1l-56.3-154.3h25.1l-56.3,154.3h-44.1l64.6-170.8h46.7l64.6,170.8h0Z"/>
  <path d="M1041.9,226.9v-32.4h157.9v32.4h-157.9Z"/>
</svg>
